<?xml version="1.0" encoding="utf-8"?>
<!-- Generator: Adobe Illustrator 17.1.0, SVG Export Plug-In . SVG Version: 6.00 Build 0)  -->
<!DOCTYPE svg PUBLIC "-//W3C//DTD SVG 1.1//EN" "http://www.w3.org/Graphics/SVG/1.1/DTD/svg11.dtd">
<svg version="1.1" id="Layer_1" xmlns="http://www.w3.org/2000/svg" xmlns:xlink="http://www.w3.org/1999/xlink" x="0px" y="0px"
	 viewBox="0 0 300 300" enable-background="new 0 0 300 300" xml:space="preserve">
<g>
	<path fill="#050505" d="M273.527,84.785h-7.939v-6.574c0-6.647-5.395-12.042-12.042-12.042h-29.189
		c-6.651,0-12.046,5.395-12.046,12.042v6.574h-1.884l-12.26-42.23c-2.621-9.046-11.034-15.363-20.455-15.363h-52.786
		c-9.421,0-17.835,6.317-20.456,15.359L92.206,84.785h-1.884v-6.569c0-6.657-5.391-12.047-12.046-12.047H49.091
		c-6.656,0-12.046,5.39-12.046,12.047v6.569h-7.944c-8.82,0-15.973,7.153-15.973,15.973v138.48c0,8.82,7.153,15.973,15.973,15.973
		h244.426c8.82,0,15.973-7.152,15.973-15.973v-138.48C289.5,91.938,282.347,84.785,273.527,84.785z M122.246,47.706
		c0.344-1.179,1.446-2.006,2.68-2.006h52.786c1.234,0,2.336,0.828,2.679,2.011l10.768,37.074h-79.68L122.246,47.706z
		 M151.318,246.445c-42.229,0-76.444-34.232-76.444-76.45c0-42.217,34.215-76.449,76.444-76.449
		c42.226,0,76.445,34.232,76.445,76.449C227.764,212.213,193.544,246.445,151.318,246.445z"/>
	<path fill="#050505" d="M151.318,138.696c-17.287,0-31.3,14.013-31.3,31.3c0,17.284,14.013,31.296,31.3,31.296
		c17.288,0,31.296-14.012,31.296-31.296C182.614,152.708,168.606,138.696,151.318,138.696z"/>
	<path fill="#050505" d="M151.318,109.962c-33.103,0-60.033,26.931-60.033,60.033c0,33.103,26.931,60.033,60.033,60.033
		c33.099,0,60.029-26.93,60.029-60.033C211.348,136.893,184.417,109.962,151.318,109.962z M151.318,220.775
		c-28,0-50.779-22.778-50.779-50.779c0-28.001,22.779-50.779,50.779-50.779c27.997,0,50.776,22.779,50.776,50.779
		C202.094,197.997,179.315,220.775,151.318,220.775z"/>
</g>
</svg>
