<?xml version="1.0" encoding="utf-8"?>
<!-- Generator: Adobe Illustrator 18.0.0, SVG Export Plug-In . SVG Version: 6.00 Build 0)  -->
<!DOCTYPE svg PUBLIC "-//W3C//DTD SVG 1.1//EN" "http://www.w3.org/Graphics/SVG/1.1/DTD/svg11.dtd">
<svg version="1.1" id="Capa_1" xmlns:sketch="http://www.bohemiancoding.com/sketch/ns"
	 xmlns="http://www.w3.org/2000/svg" xmlns:xlink="http://www.w3.org/1999/xlink" x="0px" y="0px" viewBox="0 0 32 32"
	 enable-background="new 0 0 32 32" xml:space="preserve">
<title>icon 63 file iso</title>
<desc>Created with Sketch.</desc>
<g>
	<path d="M15,14h1c0.6,0,1,0.5,1,1h1c0-1.1-0.9-2-2-2h-1c-1.1,0-2,0.9-2,2c0,1.1,0.9,2,2,2h1c0.6,0,1,0.4,1,1c0,0.6-0.4,1-1,1h-1
		c-0.6,0-1-0.5-1-1v0h-1v0c0,1.1,0.9,2,2,2h1c1.1,0,2-0.9,2-2c0-1.1-0.9-2-2-2h-1c-0.6,0-1-0.4-1-1C14,14.4,14.4,14,15,14z"/>
	<polygon points="9,14 10,14 10,19 9,19 9,20 12,20 12,19 11,19 11,14 12,14 12,13 9,13 	"/>
	<path d="M22,13h-1c-1.1,0-2,0.9-2,2v3c0,1.1,0.9,2,2,2h1c1.1,0,2-0.9,2-2v-3C24,13.9,23.1,13,22,13z M23,18c0,0.6-0.4,1-1,1h-1
		c-0.6,0-1-0.4-1-1v-3c0-0.6,0.4-1,1-1h1c0.6,0,1,0.4,1,1V18z"/>
	<path d="M25,10H8c-1.7,0-3,1.3-3,3v7c0,1.7,1.3,3,3,3h17c1.7,0,3-1.3,3-3v-7C28,11.3,26.7,10,25,10z M27,20c0,1.1-0.9,2-2,2H8
		c-1.1,0-2-0.9-2-2v-7c0-1.1,0.9-2,2-2h17c1.1,0,2,0.9,2,2V20z"/>
</g>
</svg>
