<?xml version="1.0" encoding="iso-8859-1"?>
<!-- Generator: Adobe Illustrator 17.0.0, SVG Export Plug-In . SVG Version: 6.00 Build 0)  -->
<!DOCTYPE svg PUBLIC "-//W3C//DTD SVG 1.1//EN" "http://www.w3.org/Graphics/SVG/1.1/DTD/svg11.dtd">
<svg version="1.1" id="Capa_1" xmlns="http://www.w3.org/2000/svg" xmlns:xlink="http://www.w3.org/1999/xlink" x="0px" y="0px"
	 width="64px" height="64px" viewBox="0 0 64 64" style="enable-background:new 0 0 64 64;" xml:space="preserve">
<g>
	<path d="M9.868,39.594l1.107-0.403c0.193,0.606,0.412,1.198,0.651,1.781l-1.108,0.403c0.308,0.755,0.652,1.49,1.03,2.206
		l1.024-0.592c0.295,0.562,0.614,1.107,0.952,1.641l-1.025,0.592c0.434,0.688,0.9,1.352,1.398,1.991l0.907-0.761
		c0.388,0.5,0.791,0.988,1.217,1.456l-0.908,0.762c0.545,0.601,1.119,1.175,1.72,1.72l0.762-0.908
		c0.467,0.426,0.955,0.829,1.456,1.217l-0.761,0.907c0.64,0.497,1.304,0.963,1.991,1.397l0.592-1.025
		c0.533,0.339,1.08,0.657,1.641,0.953l-0.591,1.024c0.715,0.378,1.45,0.721,2.205,1.029l0.403-1.109
		c0.583,0.24,1.176,0.458,1.781,0.651l-0.403,1.107c0.769,0.246,1.553,0.456,2.351,0.628l0.205-1.159
		c0.615,0.134,1.238,0.242,1.87,0.326l-0.204,1.158c0.796,0.108,1.605,0.18,2.423,0.21v-1.174c0.315,0.013,0.63,0.024,0.948,0.024
		c0.318,0,0.633-0.012,0.948-0.024v1.174c0.819-0.03,1.627-0.102,2.424-0.21l-0.204-1.158c0.631-0.084,1.254-0.192,1.868-0.326
		l0.205,1.159c0.798-0.172,1.583-0.382,2.351-0.628l-0.403-1.107c0.606-0.193,1.198-0.411,1.781-0.651l0.403,1.109
		c0.755-0.309,1.49-0.651,2.205-1.029l-0.591-1.024c0.561-0.296,1.108-0.614,1.641-0.952l0.592,1.025
		c0.688-0.435,1.352-0.9,1.991-1.397l-0.761-0.907c0.5-0.388,0.988-0.791,1.455-1.216l0.762,0.907
		c0.602-0.545,1.176-1.119,1.722-1.72l-0.908-0.763c0.425-0.467,0.828-0.955,1.216-1.455l0.907,0.761
		c0.497-0.64,0.964-1.304,1.398-1.991l-1.025-0.592c0.338-0.533,0.656-1.079,0.951-1.64l1.024,0.591
		c0.379-0.716,0.723-1.451,1.03-2.205l-1.108-0.403c0.239-0.583,0.458-1.177,0.651-1.781l1.107,0.402
		c0.247-0.768,0.457-1.553,0.629-2.352l-1.16-0.204c0.134-0.614,0.242-1.237,0.327-1.868l1.158,0.204
		c0.108-0.797,0.18-1.604,0.21-2.424H57.12c0.013-0.315,0.024-0.631,0.024-0.949c0-0.318-0.012-0.633-0.024-0.948h1.174
		c-0.03-0.819-0.102-1.627-0.21-2.423l-1.158,0.204c-0.084-0.631-0.192-1.254-0.326-1.869l1.16-0.205
		c-0.172-0.799-0.382-1.583-0.628-2.351l-1.107,0.403c-0.194-0.605-0.412-1.199-0.652-1.782l1.109-0.404
		c-0.308-0.754-0.651-1.49-1.029-2.206l-1.024,0.592c-0.296-0.561-0.614-1.107-0.952-1.641l1.025-0.592
		c-0.434-0.688-0.9-1.352-1.397-1.992l-0.907,0.762c-0.388-0.5-0.79-0.988-1.216-1.456l0.908-0.762
		c-0.546-0.602-1.12-1.176-1.721-1.721l-0.763,0.909c-0.468-0.426-0.956-0.829-1.456-1.217l0.761-0.907
		c-0.64-0.497-1.303-0.963-1.99-1.397l-0.593,1.026c-0.533-0.338-1.079-0.657-1.641-0.953l0.592-1.024
		c-0.715-0.378-1.451-0.721-2.206-1.029l-0.403,1.108c-0.583-0.24-1.176-0.458-1.781-0.651l0.403-1.107
		c-0.769-0.247-1.553-0.456-2.352-0.629L38.535,8.9c-0.615-0.134-1.238-0.242-1.869-0.327l0.204-1.158
		c-0.796-0.108-1.604-0.179-2.423-0.21v1.174c-0.315-0.012-0.63-0.024-0.948-0.024c-0.318,0-0.633,0.012-0.948,0.024V7.205
		c-0.819,0.031-1.627,0.102-2.424,0.21l0.204,1.158C29.7,8.658,29.077,8.767,28.462,8.9l-0.205-1.16
		c-0.799,0.172-1.584,0.382-2.352,0.628l0.403,1.107c-0.605,0.194-1.199,0.412-1.781,0.652l-0.404-1.109
		c-0.754,0.308-1.489,0.651-2.205,1.03l0.591,1.024c-0.561,0.296-1.107,0.614-1.64,0.952L20.278,11
		c-0.688,0.434-1.353,0.9-1.992,1.397l0.762,0.908c-0.5,0.388-0.988,0.791-1.456,1.216l-0.762-0.908
		c-0.601,0.545-1.175,1.12-1.72,1.721l0.908,0.762c-0.426,0.467-0.829,0.955-1.216,1.456l-0.908-0.761
		c-0.497,0.64-0.963,1.304-1.397,1.992l1.026,0.592c-0.338,0.533-0.657,1.08-0.952,1.641l-1.025-0.592
		c-0.378,0.715-0.721,1.451-1.029,2.205l1.109,0.404c-0.24,0.583-0.458,1.177-0.651,1.782L9.867,24.41
		c-0.247,0.769-0.456,1.553-0.628,2.352l1.16,0.205c-0.134,0.614-0.242,1.237-0.327,1.868L8.914,28.63
		c-0.108,0.797-0.179,1.604-0.21,2.423h1.174c-0.012,0.314-0.024,0.629-0.024,0.947c0,0.319,0.012,0.635,0.024,0.95H8.704
		c0.031,0.818,0.102,1.626,0.211,2.423l1.158-0.204c0.085,0.631,0.193,1.254,0.327,1.868l-1.16,0.205
		C9.412,38.041,9.621,38.826,9.868,39.594z M33.499,12.149c10.946,0,19.852,8.905,19.852,19.852s-8.905,19.852-19.852,19.852
		c-10.946,0-19.852-8.905-19.852-19.852S22.553,12.149,33.499,12.149z"/>
	<path d="M33.499,47.177c8.368,0,15.176-6.808,15.176-15.176c0-8.368-6.808-15.176-15.176-15.176
		c-8.368,0-15.176,6.808-15.176,15.176C18.323,40.369,25.131,47.177,33.499,47.177z M33.499,22.516c5.23,0,9.485,4.255,9.485,9.485
		s-4.255,9.486-9.485,9.486c-5.23,0-9.485-4.256-9.485-9.486S28.269,22.516,33.499,22.516z"/>
	<path d="M39.822,32h1.265c0-4.184-3.403-7.588-7.588-7.588v1.265C36.985,25.677,39.822,28.514,39.822,32z"/>
</g>
</svg>
